<svg width="361" height="167" viewBox="0 0 361 167" fill="none" xmlns="http://www.w3.org/2000/svg">
<path d="M203.246 5.94727C207.39 -0.665554 228.108 -5.21158 232.873 11.7335C232.873 11.7335 234.324 22.0659 232.873 26.1988C232.873 26.1988 232.252 29.9184 235.152 33.2248C238.053 36.5311 244.061 40.4575 246.547 46.8635C249.034 53.2695 247.79 62.9821 247.998 67.5283C248.205 72.0744 247.583 88.1931 249.241 92.326C250.898 96.459 252.763 106.585 253.592 111.131C254.42 115.677 255.042 132.416 255.249 134.689C255.456 136.962 258.15 156.387 259.807 157.627C261.465 158.867 273.481 159.486 274.103 160.313C274.724 161.14 273.067 161.76 273.067 161.76C273.067 161.76 276.796 164.033 273.895 164.239C270.995 164.446 258.357 165.686 256.285 164.859C254.213 164.033 253.384 162.173 251.313 162.173C249.241 162.173 246.34 164.652 244.89 165.066C243.44 165.479 239.503 164.859 240.746 163.826C241.989 162.793 247.583 159.693 248.412 157.42C249.241 155.147 251.105 150.394 249.862 145.021C248.619 139.648 244.268 127.456 244.268 127.456C243.232 119.604 238.674 108.031 237.431 103.072C236.188 98.1122 237.224 88.1931 235.774 86.3332C235.774 86.3332 232.459 92.3259 227.694 89.0196C227.694 89.0196 227.694 102.245 227.072 105.758C226.451 109.271 223.964 115.264 222.928 118.777C221.893 122.29 214.434 135.763 215.263 137.582C216.299 139.855 215.884 142.955 216.713 145.021C217.542 147.087 220.028 150.394 221.685 151.427C223.343 152.46 226.036 154.32 225.415 158.04C225.415 158.04 226.243 159.073 226.243 160.52C226.243 161.966 220.442 161.759 218.785 161.76C217.127 161.76 207.39 161.966 206.561 160.52C205.732 159.073 207.183 157.627 206.354 157.007C205.525 156.387 202.003 156.18 201.381 155.973C200.76 155.767 199.931 155.973 198.895 153.494C197.859 151.014 201.381 148.534 201.381 146.054C201.381 143.575 202.624 139.441 204.489 137.168C206.354 134.895 206.147 130.556 206.354 126.629C206.561 122.703 204.075 112.164 204.489 108.444C204.904 104.725 205.836 102.452 205.836 102.452C207.597 98.9386 207.183 96.4589 207.183 96.4589C207.183 96.4589 200.345 96.0455 198.895 95.219C197.445 94.3925 195.58 90.4661 195.58 90.4661C194.544 91.9126 191.229 91.2927 191.229 91.2927C191.229 91.2927 193.923 94.3925 194.544 98.1121C195.166 101.832 193.508 110.098 193.094 114.024C192.68 117.95 194.337 127.869 194.544 130.969C194.752 134.069 195.373 144.608 194.337 147.501C193.301 150.394 191.437 152.564 187.707 153.494C183.978 154.424 182.528 154.114 180.249 153.08C177.97 152.047 176.727 150.187 176.727 150.187C176.727 150.187 178.591 155.354 179.834 157.627C181.077 159.9 185.635 163.619 185.635 163.619C185.635 163.619 188.95 162.586 188.536 164.239C188.122 165.892 185.014 166.306 183.564 165.892C182.113 165.479 179.834 162.379 177.348 163.619C174.862 164.859 173.412 166.512 170.097 166.926C166.782 167.339 154.765 165.892 152.901 165.892C151.036 165.893 152.486 164.653 152.486 164.653C152.486 164.653 150 165.066 150 163.619C150 162.173 152.901 162.586 152.901 162.586C152.901 162.586 153.315 161.76 154.558 161.76C155.801 161.76 164.917 161.346 166.782 159.693C168.646 158.04 169.061 151.221 169.268 149.361C169.475 147.501 168.646 142.955 168.439 141.715C168.232 140.475 165.953 136.549 165.953 136.549C165.953 136.549 165.953 140.061 161.602 139.028C157.251 137.995 152.486 131.382 152.693 125.596C152.901 119.81 154.972 117.95 155.387 115.264C155.801 112.577 154.972 105.551 154.972 105.551C154.972 105.551 154.972 98.5255 162.224 98.1121C169.475 97.6987 166.575 103.072 167.818 102.245C169.061 101.418 165.953 74.9677 166.782 70.8347C167.611 66.7018 171.133 58.0225 171.133 58.0225L173.619 41.4908C173.619 41.4908 173.826 38.3911 174.033 37.3578C174.24 36.3246 175.691 32.6049 177.763 30.5383C179.834 28.4718 187.914 26.1988 190.608 25.9922C193.301 25.7856 198.481 26.4054 198.481 26.4054C198.481 26.4054 199.102 12.5601 203.246 5.94727Z" fill="white"/>
<path d="M44.9375 46.9375H49.5625C61.9375 46.9375 71.1875 49.9167 77.3125 55.875C82.9375 61.3333 85.75 69.0625 85.75 79.0625C85.75 87.9375 82.8333 95.0833 77 100.5C70.7917 106.25 62.2292 109.125 51.3125 109.125H44.9375V46.9375ZM0.0625 46.9375H33.6875V131.875H0.0625V46.9375Z" fill="white"/>
<path d="M100.812 46.9375H134.438V132H100.812V46.9375Z" fill="white"/>
<path d="M325.438 46.9375H360.125V70.5625H353.625C342.333 70.5625 334.625 68.7917 330.5 65.25C327.125 62.3333 325.438 57.625 325.438 51.125V46.9375ZM281 46.9375H314.625V81.1875H339.688V97.5H314.625V131.875H281V46.9375Z" fill="white"/>
</svg>
