<svg width="790" height="265" viewBox="0 0 790 265" fill="none" xmlns="http://www.w3.org/2000/svg">
<g filter="url(#filter0_i_1274_73)">
<path d="M279.741 11.0464C279.741 13.9613 281.091 16.5369 281.169 19.4149C281.387 27.4663 281.883 35.4712 281.883 43.5291C281.883 49.853 281.754 56.1649 281.605 62.4872C281.433 69.8052 281.776 77.2713 280.772 84.5389C279.955 90.4535 278.782 96.0924 278.69 102.089C278.599 108.022 277.545 114.006 277.996 119.917C278.492 126.416 278.44 132.942 278.988 139.43C279.577 146.417 280.349 153.353 280.812 160.352L280.822 160.496C281.344 168.377 281.869 176.316 282.161 184.208C282.364 189.715 282.387 194.811 283.668 200.191C285.147 206.405 286.451 212.217 289.22 217.94C291.562 222.779 294.856 224.818 299.731 226.646M244.046 105.639C259.256 106.533 274.46 106.353 289.716 106.353C300.236 106.353 310.645 105.282 321.148 105.282M413.599 112.421C413.599 110.87 412.486 109.331 411.735 108.058C409.748 104.691 407.247 101.789 404.001 99.5709C400.301 97.0427 396.054 95.8264 391.785 94.6529C388.123 93.6463 384.269 92.5263 380.442 93.1061C374.033 94.0772 368.228 96.1819 362.991 100.007C358.678 103.157 356.539 109.969 354.186 114.642C352.412 118.164 352.305 121.432 352.123 125.311C352.01 127.742 351.635 130.255 351.925 132.688C352.606 138.404 359.102 142.943 363.189 146.411C368.655 151.049 374.535 152.33 381.632 152.4L381.773 152.401C384.517 152.428 387.272 152.455 389.96 153.114C396.485 154.713 401.728 159.443 408.086 161.522C411.897 162.768 417.503 163.271 419.706 166.995C421.076 169.31 421.407 171.372 421.967 173.976C422.611 176.969 423.537 179.873 422.721 182.939C422.174 184.995 421.091 186.656 420.817 188.809C420.47 191.537 419.655 193.732 418.08 195.988C416.111 198.809 414.182 201.713 411.695 204.118C409.312 206.423 405.871 207.938 402.89 209.314C393.812 213.504 382.256 216.37 372.192 215.699C366.896 215.346 361.911 213.073 356.843 211.694C353.77 210.857 351.822 210.552 350.259 207.49C347.886 202.839 345.551 198.132 343.239 193.449C341.935 190.808 341.22 188.519 340.78 185.676C340.18 181.794 342.396 179.51 343.993 176.316M482.134 118.132C479.439 121.616 479.119 126.172 477.791 130.289C476.908 133.023 475.441 135.396 474.796 138.241C474.019 141.674 473.593 145.194 473.567 148.711C473.554 150.479 473.434 151.906 472.992 153.629C471.989 157.536 471.934 161.341 471.564 165.329C471.028 171.104 469.851 176.33 470.83 182.146C471.793 187.862 472.916 193.335 475.173 198.685C477.281 203.681 482.525 205.836 486.933 208.243C491.941 210.979 497.858 211.511 503.511 211.753C509.241 211.998 513.174 207.731 518.463 206.22C521.509 205.35 524.58 204.97 527.268 203.166C529.683 201.546 532.263 199.42 533.872 196.959C536.79 192.497 538.162 187.549 541.943 183.613C546.174 179.209 550.007 174.816 550.847 168.562C551.509 163.633 552.493 158.622 552.453 153.629C552.421 149.519 551.514 145.088 550.867 141.017C550.329 137.639 550.668 134.036 550.668 130.626C550.668 127.463 549.586 125.124 549.082 122.098C548.764 120.188 548.951 119.369 547.813 117.775M549.954 171.675C548.173 174.704 548.052 179.998 549.102 183.256C551.175 189.694 553.241 195.578 556.578 201.481C558.401 204.707 560.997 207.148 563.637 209.711C565.652 211.666 567.414 213.914 569.547 215.739C572.832 218.551 575.85 220.286 579.938 221.649M613.135 25.3247C613.135 29.573 613.542 33.8166 613.492 38.056C613.37 48.3937 613.135 58.7272 613.135 69.0712C613.135 75.8917 613.781 82.652 613.849 89.4572C613.92 96.5682 613.849 103.683 613.849 110.795C613.849 114.843 614.731 118.266 615.514 122.217C616.334 126.349 615.804 130.803 614.84 134.869C613.687 139.736 613.849 144.444 613.849 149.425C613.849 153.725 613.685 158.064 614.007 162.355C614.321 166.519 614.91 170.426 614.92 174.65C614.946 185.682 614.563 196.701 614.563 207.727M622.772 146.689C626.296 148.186 629.561 149.065 633.441 148.592C638.692 147.953 643.249 144.421 647.878 142.167C655.762 138.329 663.919 136.242 669.454 129.079C672.073 125.69 675.334 122.407 677.644 118.827C679.517 115.924 681.078 112.311 681.987 108.991C683.478 103.543 685.602 98.3303 687.143 92.9078C688.593 87.8035 689.84 82.2075 689.84 76.8846C689.84 75.7196 689.672 74.7161 689.126 73.6721C688.282 72.0601 687.914 70.9171 687.381 69.23M623.486 150.615C627.838 150.615 631.345 147.565 635.583 147.045C641.798 146.283 647.903 147.555 653.986 148.751C661.244 150.177 668.296 151.438 674.61 155.473C677.451 157.289 680.157 159.171 682.007 162.017C684.566 165.954 685.524 171.503 686.746 175.958C688.296 181.608 688.96 186.755 688.571 192.576C688.388 195.303 688.175 197.941 688.69 200.648C689.136 202.999 689.448 204.722 689.344 207.152C688.965 216.017 690.435 226.465 695.432 234.082C700.273 241.462 707.381 248.334 715.183 252.584C720.901 255.698 723.671 253.138 726.586 248.182C727.837 246.056 728.478 243.732 730.215 241.995M748.063 76.0116C745.011 76.0116 746.244 71.5625 748.34 70.6573C750.559 69.6992 749.134 71.2473 749.134 72.4421M743.422 127.413C743.422 132.363 742.981 137.344 743.145 142.286C743.353 148.592 744.661 154.946 745.643 161.165C746.256 165.042 746.786 168.914 746.873 172.845C746.946 176.148 746.254 179.434 746.397 182.721C746.608 187.579 749.554 191.895 751.394 196.245C753.463 201.134 755.885 207.421 761.012 209.71C763.51 210.825 766.17 212.499 768.845 213.082C772.133 213.798 775.225 214.878 778.404 215.937" stroke="white" stroke-width="22" stroke-linecap="round"/>
</g>
<g filter="url(#filter1_i_1274_73)">
<path d="M164.63 63.2636C166.879 63.7124 169.14 64.3853 171.422 64.6895C171.422 64.6895 198.709 66.8552 201.357 66.7635C203.379 66.6936 206.358 52.2636 184.142 43.1684C182.693 42.1157 180.995 41.9657 178.963 41.2337C173.426 39.2383 169.418 38.2986 164.63 36.5766C158.885 34.5107 153.204 32.7436 147.23 31.4318C140.872 30.0356 127.858 29.7636 127.858 29.7636C127.858 29.7636 84.4718 27.2219 63.9896 35.698C51.3292 40.9372 41.0647 56.7699 35.412 69.6172C25.7175 91.6508 5.91182 124.959 12.825 148.555C18.9096 169.322 43.748 205.64 43.748 205.64C43.748 205.64 56.1622 221.467 64.5013 226.903C73.9308 233.05 96.9632 239.286 96.9632 239.286C96.9632 239.286 114.634 242.239 123.76 240.848C133.592 239.349 167.164 228.745 167.164 228.745C167.164 228.745 179.378 222.672 184.357 218.264C188.843 214.293 192.733 209.521 196.849 205.182L197.159 204.855L197.16 204.855C200.219 201.631 203.261 198.425 205.707 194.692C210.36 187.591 219.357 166.316 219.357 154.264C219.357 142.211 215.357 124.264 208.857 123.764C202.357 123.264 199.604 149.475 181.52 166.733C168.123 175.883 150.341 181.875 134.255 184.327C128.059 185.272 119.934 185.478 113.973 183.208C109.324 181.437 104.502 178.037 100.252 175.538C93.8196 171.754 86.6303 167.34 82.4991 160.939C78.1879 154.258 77.2435 147.588 77.4095 139.711C77.7099 125.46 79.5394 112.482 87.4914 100.462C88.7002 94.8658 99.4025 81.6462 112.653 73.2181C121.436 67.6313 141.736 62.3244 141.736 62.3244C141.736 62.3244 156.96 61.7329 164.63 63.2636Z" stroke="url(#paint0_linear_1274_73)" stroke-width="22" stroke-linecap="round"/>
</g>
<defs>
<filter id="filter0_i_1274_73" x="226.046" y="0.0463867" width="563.361" height="269.904" filterUnits="userSpaceOnUse" color-interpolation-filters="sRGB">
<feFlood flood-opacity="0" result="BackgroundImageFix"/>
<feBlend mode="normal" in="SourceGraphic" in2="BackgroundImageFix" result="shape"/>
<feColorMatrix in="SourceAlpha" type="matrix" values="0 0 0 0 0 0 0 0 0 0 0 0 0 0 0 0 0 0 127 0" result="hardAlpha"/>
<feOffset dx="-7" dy="5"/>
<feGaussianBlur stdDeviation="7.8"/>
<feComposite in2="hardAlpha" operator="arithmetic" k2="-1" k3="1"/>
<feColorMatrix type="matrix" values="0 0 0 0 0 0 0 0 0 0 0 0 0 0 0 0 0 0 0.75 0"/>
<feBlend mode="normal" in2="shape" result="effect1_innerShadow_1274_73"/>
</filter>
<filter id="filter1_i_1274_73" x="0.393005" y="18.4064" width="236.964" height="240.812" filterUnits="userSpaceOnUse" color-interpolation-filters="sRGB">
<feFlood flood-opacity="0" result="BackgroundImageFix"/>
<feBlend mode="normal" in="SourceGraphic" in2="BackgroundImageFix" result="shape"/>
<feColorMatrix in="SourceAlpha" type="matrix" values="0 0 0 0 0 0 0 0 0 0 0 0 0 0 0 0 0 0 127 0" result="hardAlpha"/>
<feOffset dx="7" dy="7"/>
<feGaussianBlur stdDeviation="7.8"/>
<feComposite in2="hardAlpha" operator="arithmetic" k2="-1" k3="1"/>
<feColorMatrix type="matrix" values="0 0 0 0 0 0 0 0 0 0 0 0 0 0 0 0 0 0 0.75 0"/>
<feBlend mode="normal" in2="shape" result="effect1_innerShadow_1274_73"/>
</filter>
<linearGradient id="paint0_linear_1274_73" x1="49.9807" y1="228.617" x2="134.299" y2="56.2121" gradientUnits="userSpaceOnUse">
<stop offset="0.25" stop-color="#380064"/>
<stop offset="0.5" stop-color="#630E6F"/>
<stop offset="0.75" stop-color="#9F1CAB"/>
<stop offset="1" stop-color="#CE03BF"/>
</linearGradient>
</defs>
</svg>
