<svg width="803" height="265" viewBox="0 0 803 265" fill="none" xmlns="http://www.w3.org/2000/svg">
<g filter="url(#filter0_i_1335_3)">
<path d="M292.741 11.0464C292.741 13.9613 294.091 16.5369 294.169 19.4149C294.387 27.4663 294.883 35.4712 294.883 43.5291C294.883 49.853 294.754 56.1649 294.605 62.4872C294.433 69.8052 294.776 77.2713 293.772 84.5389C292.955 90.4535 291.782 96.0924 291.69 102.089C291.599 108.022 290.545 114.006 290.996 119.917C291.492 126.416 291.44 132.942 291.988 139.43C292.577 146.417 293.349 153.353 293.812 160.352L293.822 160.496C294.344 168.377 294.869 176.316 295.161 184.208C295.364 189.715 295.387 194.811 296.668 200.191C298.147 206.405 299.451 212.217 302.22 217.94C304.562 222.779 307.856 224.818 312.731 226.646M257.046 105.639C272.256 106.533 287.46 106.353 302.716 106.353C313.236 106.353 323.645 105.282 334.148 105.282M426.599 112.421C426.599 110.87 425.486 109.331 424.735 108.058C422.748 104.691 420.247 101.789 417.001 99.5709C413.301 97.0427 409.054 95.8264 404.785 94.6529C401.123 93.6463 397.269 92.5263 393.442 93.1061C387.033 94.0772 381.228 96.1819 375.991 100.007C371.678 103.157 369.539 109.969 367.186 114.642C365.412 118.164 365.305 121.432 365.123 125.311C365.01 127.742 364.635 130.255 364.925 132.688C365.606 138.404 372.102 142.943 376.189 146.411C381.655 151.049 387.535 152.33 394.632 152.4L394.773 152.401C397.517 152.428 400.272 152.455 402.96 153.114C409.485 154.713 414.728 159.443 421.086 161.522C424.897 162.768 430.503 163.271 432.706 166.995C434.076 169.31 434.407 171.372 434.967 173.976C435.611 176.969 436.537 179.873 435.721 182.939C435.174 184.995 434.091 186.656 433.817 188.809C433.47 191.537 432.655 193.732 431.08 195.988C429.111 198.809 427.182 201.713 424.695 204.118C422.312 206.423 418.871 207.938 415.89 209.314C406.812 213.504 395.256 216.37 385.192 215.699C379.896 215.346 374.911 213.073 369.843 211.694C366.77 210.857 364.822 210.552 363.259 207.49C360.886 202.839 358.551 198.132 356.239 193.449C354.935 190.808 354.22 188.519 353.78 185.676C353.18 181.794 355.396 179.51 356.993 176.316M495.134 118.132C492.439 121.616 492.119 126.172 490.791 130.289C489.908 133.023 488.441 135.396 487.796 138.241C487.019 141.674 486.593 145.194 486.567 148.711C486.554 150.479 486.434 151.906 485.992 153.629C484.989 157.536 484.934 161.341 484.564 165.329C484.028 171.104 482.851 176.33 483.83 182.146C484.793 187.862 485.916 193.335 488.173 198.685C490.281 203.681 495.525 205.836 499.933 208.243C504.941 210.979 510.858 211.511 516.511 211.753C522.241 211.998 526.174 207.731 531.463 206.22C534.509 205.35 537.58 204.97 540.268 203.166C542.683 201.546 545.263 199.42 546.872 196.959C549.79 192.497 551.162 187.549 554.943 183.613C559.174 179.209 563.007 174.816 563.847 168.562C564.509 163.633 565.493 158.622 565.453 153.629C565.421 149.519 564.514 145.088 563.867 141.017C563.329 137.639 563.668 134.036 563.668 130.626C563.668 127.463 562.586 125.124 562.082 122.098C561.764 120.188 561.951 119.369 560.813 117.775M562.954 171.675C561.173 174.704 561.052 179.998 562.102 183.256C564.175 189.694 566.241 195.578 569.578 201.481C571.401 204.707 573.997 207.148 576.637 209.711C578.652 211.666 580.414 213.914 582.547 215.739C585.832 218.551 588.85 220.286 592.938 221.649M626.135 25.3247C626.135 29.573 626.542 33.8166 626.492 38.056C626.37 48.3937 626.135 58.7272 626.135 69.0712C626.135 75.8917 626.781 82.652 626.849 89.4572C626.92 96.5682 626.849 103.683 626.849 110.795C626.849 114.843 627.731 118.266 628.514 122.217C629.334 126.349 628.804 130.803 627.84 134.869C626.687 139.736 626.849 144.444 626.849 149.425C626.849 153.725 626.685 158.064 627.007 162.355C627.321 166.519 627.91 170.426 627.92 174.65C627.946 185.682 627.563 196.701 627.563 207.727M635.772 146.689C639.296 148.186 642.561 149.065 646.441 148.592C651.692 147.953 656.249 144.421 660.878 142.167C668.762 138.329 676.919 136.242 682.454 129.079C685.073 125.69 688.334 122.407 690.644 118.827C692.517 115.924 694.078 112.311 694.987 108.991C696.478 103.543 698.602 98.3303 700.143 92.9078C701.593 87.8035 702.84 82.2075 702.84 76.8846C702.84 75.7196 702.672 74.7161 702.126 73.6721C701.282 72.0601 700.914 70.9171 700.381 69.23M636.486 150.615C640.838 150.615 644.345 147.565 648.583 147.045C654.798 146.283 660.903 147.555 666.986 148.751C674.244 150.177 681.296 151.438 687.61 155.473C690.451 157.289 693.157 159.171 695.007 162.017C697.566 165.954 698.524 171.503 699.746 175.958C701.296 181.608 701.96 186.755 701.571 192.576C701.388 195.303 701.175 197.941 701.69 200.648C702.136 202.999 702.448 204.722 702.344 207.152C701.965 216.017 703.435 226.465 708.432 234.082C713.273 241.462 720.381 248.334 728.183 252.584C733.901 255.698 736.671 253.138 739.586 248.182C740.837 246.056 741.478 243.732 743.215 241.995M761.063 76.0116C758.011 76.0116 759.244 71.5625 761.34 70.6573C763.559 69.6992 762.134 71.2473 762.134 72.4421M756.422 127.413C756.422 132.363 755.981 137.344 756.145 142.286C756.353 148.592 757.661 154.946 758.643 161.165C759.256 165.042 759.786 168.914 759.873 172.845C759.946 176.148 759.254 179.434 759.397 182.721C759.608 187.579 762.554 191.895 764.394 196.245C766.463 201.134 768.885 207.421 774.012 209.71C776.51 210.825 779.17 212.499 781.845 213.082C785.133 213.798 788.225 214.878 791.404 215.937" stroke="#1E1E1E" stroke-width="22" stroke-linecap="round"/>
</g>
<g filter="url(#filter1_i_1335_3)">
<path d="M177.63 63.2636C179.879 63.7124 182.14 64.3853 184.422 64.6895C184.422 64.6895 211.709 66.8552 214.357 66.7635C216.379 66.6936 219.358 52.2636 197.142 43.1684C195.693 42.1157 193.995 41.9657 191.963 41.2337C186.426 39.2383 182.418 38.2986 177.63 36.5766C171.885 34.5107 166.204 32.7436 160.23 31.4318C153.872 30.0356 140.858 29.7636 140.858 29.7636C140.858 29.7636 97.4718 27.2219 76.9896 35.698C64.3292 40.9372 54.0647 56.7699 48.412 69.6172C38.7175 91.6508 18.9118 124.959 25.825 148.555C31.9096 169.322 56.748 205.64 56.748 205.64C56.748 205.64 69.1622 221.467 77.5013 226.903C86.9308 233.05 109.963 239.286 109.963 239.286C109.963 239.286 127.634 242.239 136.76 240.848C146.592 239.349 180.164 228.745 180.164 228.745C180.164 228.745 192.378 222.672 197.357 218.264C201.843 214.293 205.733 209.521 209.849 205.182L210.159 204.855L210.16 204.855C213.219 201.631 216.261 198.425 218.707 194.692C223.36 187.591 232.357 166.316 232.357 154.264C232.357 142.211 228.357 124.264 221.857 123.764C215.357 123.264 212.604 149.475 194.52 166.733C181.123 175.883 163.341 181.875 147.255 184.327C141.059 185.272 132.934 185.478 126.973 183.208C122.324 181.437 117.502 178.037 113.252 175.538C106.82 171.754 99.6303 167.34 95.4991 160.939C91.1879 154.258 90.2435 147.588 90.4095 139.711C90.7099 125.46 92.5394 112.482 100.491 100.462C101.7 94.8658 112.402 81.6462 125.653 73.2181C134.436 67.6313 154.736 62.3244 154.736 62.3244C154.736 62.3244 169.96 61.7329 177.63 63.2636Z" stroke="url(#paint0_linear_1335_3)" stroke-width="22" stroke-linecap="round"/>
</g>
<defs>
<filter id="filter0_i_1335_3" x="239.046" y="0.0463867" width="563.361" height="269.904" filterUnits="userSpaceOnUse" color-interpolation-filters="sRGB">
<feFlood flood-opacity="0" result="BackgroundImageFix"/>
<feBlend mode="normal" in="SourceGraphic" in2="BackgroundImageFix" result="shape"/>
<feColorMatrix in="SourceAlpha" type="matrix" values="0 0 0 0 0 0 0 0 0 0 0 0 0 0 0 0 0 0 127 0" result="hardAlpha"/>
<feOffset dx="-7" dy="5"/>
<feGaussianBlur stdDeviation="7.8"/>
<feComposite in2="hardAlpha" operator="arithmetic" k2="-1" k3="1"/>
<feColorMatrix type="matrix" values="0 0 0 0 0.388235 0 0 0 0 0.388235 0 0 0 0 0.388235 0 0 0 0.75 0"/>
<feBlend mode="normal" in2="shape" result="effect1_innerShadow_1335_3"/>
</filter>
<filter id="filter1_i_1335_3" x="13.393" y="18.4064" width="236.964" height="240.812" filterUnits="userSpaceOnUse" color-interpolation-filters="sRGB">
<feFlood flood-opacity="0" result="BackgroundImageFix"/>
<feBlend mode="normal" in="SourceGraphic" in2="BackgroundImageFix" result="shape"/>
<feColorMatrix in="SourceAlpha" type="matrix" values="0 0 0 0 0 0 0 0 0 0 0 0 0 0 0 0 0 0 127 0" result="hardAlpha"/>
<feOffset dx="7" dy="7"/>
<feGaussianBlur stdDeviation="7.8"/>
<feComposite in2="hardAlpha" operator="arithmetic" k2="-1" k3="1"/>
<feColorMatrix type="matrix" values="0 0 0 0 0 0 0 0 0 0 0 0 0 0 0 0 0 0 0.75 0"/>
<feBlend mode="normal" in2="shape" result="effect1_innerShadow_1335_3"/>
</filter>
<linearGradient id="paint0_linear_1335_3" x1="62.9807" y1="228.617" x2="147.299" y2="56.2121" gradientUnits="userSpaceOnUse">
<stop offset="0.25" stop-color="#380064"/>
<stop offset="0.5" stop-color="#630E6F"/>
<stop offset="0.75" stop-color="#9F1CAB"/>
<stop offset="1" stop-color="#CE03BF"/>
</linearGradient>
</defs>
</svg>
